<svg xmlns="http://www.w3.org/2000/svg" width="173.83" height="70.709" viewBox="0 0 173.83 70.709">
  <g id="Group_13" data-name="Group 13" transform="translate(-1131.921 -383.918)">
    <g id="Group_10" data-name="Group 10" transform="translate(1150.951 378.746)">
      <g id="Group_1" data-name="Group 1" transform="translate(40.195 95.247) rotate(-90)">
        <path id="Path_23" data-name="Path 23" d="M0,0H70.709V139.56H0Z" transform="translate(19.367 -59.225)" fill="#2e4159"/>
      </g>
      <g id="Group_2" data-name="Group 2" transform="translate(-6 1)">
        <path id="Path_1" data-name="Path 1" d="M39.683,13.9c.021-.043.045-.085.071-.128a.248.248,0,0,1,.137-.1,1.617,1.617,0,0,1,.255-.056,3.209,3.209,0,0,1,.448-.024c.086,0,.2,0,.337-.008l.447-.016c.161-.005.323-.013.488-.024s.318-.021.456-.032a1.324,1.324,0,0,1,.032.256c0,.171-.053.262-.16.272a1.955,1.955,0,0,0-.768.216.422.422,0,0,0-.192.36c0,.011.009.152.024.424s.04.725.073,1.36.071,1.48.12,2.536.1,2.368.168,3.936a.558.558,0,0,0,.208.448,1.978,1.978,0,0,0,.783.24.168.168,0,0,1,.12.088.337.337,0,0,1,.041.168,1.331,1.331,0,0,1-.033.256l-1.015-.056c-.305-.016-.584-.024-.841-.024-.106,0-.239,0-.4.008l-.5.016c-.177,0-.35.013-.521.024s-.319.021-.448.032a1.383,1.383,0,0,1-.031-.256c0-.171.053-.256.16-.256a3.445,3.445,0,0,0,.871-.256.453.453,0,0,0,.233-.432c0-.032-.009-.229-.025-.592s-.037-.805-.064-1.328-.053-1.088-.08-1.7-.053-1.181-.079-1.72-.051-1-.073-1.392-.031-.627-.031-.712l-3.5,8.464a1.063,1.063,0,0,1-.119.216.185.185,0,0,1-.153.072.4.4,0,0,1-.144-.016l-3.92-8.992c-.01.107-.024.365-.04.776s-.037.9-.064,1.464-.055,1.163-.088,1.792-.061,1.211-.087,1.744-.048.981-.064,1.344-.024.555-.024.576q0,.5,1.088.688c.106.011.16.1.16.256a1.331,1.331,0,0,1-.033.256c-.288-.021-.57-.04-.848-.056S31.528,24,31.314,24q-.255,0-.688.024t-.815.056a1.331,1.331,0,0,1-.033-.256c0-.149.054-.235.16-.256a2.179,2.179,0,0,0,.7-.232.567.567,0,0,0,.3-.456q0-.144.031-.808t.073-1.576q.039-.912.088-1.936t.087-1.9q.041-.871.064-1.44c.017-.378.024-.573.024-.584a.407.407,0,0,0-.2-.376,2.475,2.475,0,0,0-.761-.216c-.106-.01-.16-.1-.16-.272a1.409,1.409,0,0,1,.032-.256c.139.011.3.022.473.032s.352.019.527.024l.5.016c.161.006.288.008.385.008a3.193,3.193,0,0,1,.447.024,1.607,1.607,0,0,1,.256.056.242.242,0,0,1,.136.1,1.375,1.375,0,0,1,.072.128l3.425,7.984Z" fill="#1bcbad"/>
        <path id="Path_2" data-name="Path 2" d="M50.738,23.568q.176,0,.192.336a1.812,1.812,0,0,1-1.056.288,1.649,1.649,0,0,1-.613-.1,1.308,1.308,0,0,1-.438-.28,1.271,1.271,0,0,1-.275-.4,1.753,1.753,0,0,1-.13-.464,2.24,2.24,0,0,1-.952.984,2.915,2.915,0,0,1-1.272.264,4.479,4.479,0,0,1-.68-.056,2.054,2.054,0,0,1-.68-.232,1.464,1.464,0,0,1-.528-.5,1.532,1.532,0,0,1-.208-.848,1.724,1.724,0,0,1,.28-1,2.3,2.3,0,0,1,.72-.672,4.358,4.358,0,0,1,.96-.424q.521-.161,1-.272c.181-.032.35-.067.5-.1a3.648,3.648,0,0,0,.408-.12.422.422,0,0,0,.28-.176,1.091,1.091,0,0,0,.056-.432,2.411,2.411,0,0,0-.288-1.24,1.089,1.089,0,0,0-1.024-.488,1.469,1.469,0,0,0-.464.064.769.769,0,0,0-.32.2,1.24,1.24,0,0,0-.224.36c-.064.149-.128.326-.192.528a.384.384,0,0,1-.216.256,3.886,3.886,0,0,1-.568.192,2.474,2.474,0,0,1-.24.064,1.168,1.168,0,0,1-.24.032c-.107,0-.16-.112-.16-.336a1.152,1.152,0,0,1,.272-.7,2.761,2.761,0,0,1,.7-.624,4.194,4.194,0,0,1,.92-.44,2.943,2.943,0,0,1,.944-.168,4.853,4.853,0,0,1,1.01.1,1.847,1.847,0,0,1,.774.352,1.6,1.6,0,0,1,.494.688,3.112,3.112,0,0,1,.17,1.12v2.752a5.8,5.8,0,0,0,.04.808,1.229,1.229,0,0,0,.12.392.643.643,0,0,0,.248.3.592.592,0,0,0,.28.072.656.656,0,0,0,.248-.032A.377.377,0,0,1,50.738,23.568Zm-2.432-3.12-.515.08q-.418.081-.813.192a2.555,2.555,0,0,0-.7.312,1.585,1.585,0,0,0-.491.5,1.426,1.426,0,0,0-.185.752,1.273,1.273,0,0,0,.314.928,1.046,1.046,0,0,0,.781.32,1.434,1.434,0,0,0,.6-.136,1.493,1.493,0,0,0,.515-.384,2.038,2.038,0,0,0,.354-.584,1.936,1.936,0,0,0,.137-.736Z" fill="#1bcbad"/>
        <path id="Path_3" data-name="Path 3" d="M54.114,23.072a.385.385,0,0,0,.257.36,2.92,2.92,0,0,0,.624.2.174.174,0,0,1,.144.192,1.331,1.331,0,0,1-.033.256q-.416-.031-.809-.056T53.451,24q-.471,0-.9.024t-.826.056a1.4,1.4,0,0,1-.032-.256.171.171,0,0,1,.129-.192,3.57,3.57,0,0,0,.639-.184.4.4,0,0,0,.305-.376V14.464a.962.962,0,0,0-.192-.7,1.319,1.319,0,0,0-.768-.232.211.211,0,0,1-.208-.224.949.949,0,0,1,.031-.224q.208,0,.576-.024c.246-.016.47-.035.674-.056a4.766,4.766,0,0,0,.663-.128,1.837,1.837,0,0,1,.421-.08.235.235,0,0,1,.194.064.287.287,0,0,1,.048.176,5.01,5.01,0,0,1-.047.632,6.253,6.253,0,0,0-.049.84V20.24l2.4-2.128a.259.259,0,0,0,.143-.24.14.14,0,0,0-.119-.144c-.081-.021-.168-.04-.265-.056a1.029,1.029,0,0,1-.264-.08.2.2,0,0,1-.119-.2.892.892,0,0,1,.031-.192c.064,0,.241.008.529.024s.591.024.911.024.608-.008.865-.024.42-.024.5-.024a.223.223,0,0,0,.024.072.325.325,0,0,1,.024.12.3.3,0,0,1-.057.176.189.189,0,0,1-.168.08,2.261,2.261,0,0,0-.6.12,1.23,1.23,0,0,0-.327.168l-2.241,2.016L57.97,22.96a1.5,1.5,0,0,0,.624.488,2.742,2.742,0,0,0,.576.136c.107,0,.161.064.161.192a.95.95,0,0,1-.017.144c-.01.064-.021.117-.032.16q-1.088-.048-2.24-.048l-2.912-3.52h-.016Z" fill="#1bcbad"/>
        <path id="Path_4" data-name="Path 4" d="M61.5,24c-.183,0-.369,0-.558.008s-.362.013-.522.024-.3.021-.416.032-.192.016-.224.016a1.1,1.1,0,0,0-.016-.112.919.919,0,0,1-.016-.144.173.173,0,0,1,.144-.192,3.225,3.225,0,0,0,.673-.192.379.379,0,0,0,.255-.368V18.72a1.1,1.1,0,0,0-.168-.688,1.057,1.057,0,0,0-.728-.256.212.212,0,0,1-.208-.224.926.926,0,0,1,.032-.208q.208,0,.584-.024c.251-.016.457-.034.618-.056.248-.042.469-.088.663-.136a2,2,0,0,1,.421-.072c.151,0,.226.08.226.24a3.606,3.606,0,0,1-.048.536,5.65,5.65,0,0,0-.048.824v4.416a.379.379,0,0,0,.248.368,3.048,3.048,0,0,0,.7.192.171.171,0,0,1,.128.192c0,.032,0,.08-.008.144a.233.233,0,0,1-.024.112c-.032,0-.1,0-.216-.016s-.248-.022-.408-.032-.334-.019-.522-.024S61.682,24,61.5,24Zm-.935-9.616a.935.935,0,0,1,.263-.664.877.877,0,0,1,.664-.28.834.834,0,0,1,.64.28.95.95,0,0,1,.256.664.905.905,0,0,1-.256.672.868.868,0,0,1-.64.256.915.915,0,0,1-.664-.256A.891.891,0,0,1,60.563,14.384Z" fill="#1bcbad"/>
        <path id="Path_5" data-name="Path 5" d="M71.17,23.088a.389.389,0,0,0,.288.36,3.121,3.121,0,0,0,.64.184.173.173,0,0,1,.144.192,1.4,1.4,0,0,1-.032.256q-.416-.031-.816-.056T70.53,24q-.432,0-.856.024t-.84.056a1.4,1.4,0,0,1-.032-.256.173.173,0,0,1,.144-.192,2.815,2.815,0,0,0,.608-.184.387.387,0,0,0,.272-.36V19.952a5.229,5.229,0,0,0-.048-.736,1.72,1.72,0,0,0-.183-.584.981.981,0,0,0-.366-.384,1.175,1.175,0,0,0-.6-.136,2.32,2.32,0,0,0-.78.136,2.017,2.017,0,0,0-.677.4,1.932,1.932,0,0,0-.47.648,2.1,2.1,0,0,0-.175.88v2.912a.387.387,0,0,0,.28.36,3.04,3.04,0,0,0,.6.184.173.173,0,0,1,.144.192,1.4,1.4,0,0,1-.032.256c-.277-.021-.55-.04-.817-.056S66.152,24,65.85,24s-.609.008-.887.024-.55.035-.817.056a1.4,1.4,0,0,1-.032-.256.173.173,0,0,1,.144-.192,3.121,3.121,0,0,0,.64-.184.4.4,0,0,0,.288-.376V18.72a1.1,1.1,0,0,0-.168-.688,1.057,1.057,0,0,0-.728-.256.211.211,0,0,1-.208-.224.872.872,0,0,1,.032-.208q.207,0,.584-.024c.25-.016.456-.034.617-.056.248-.042.47-.088.664-.136a2,2,0,0,1,.42-.072c.151,0,.227.08.227.24a3.606,3.606,0,0,1-.048.536,5.649,5.649,0,0,0-.048.824,6.984,6.984,0,0,1,1.315-1.184,2.456,2.456,0,0,1,1.38-.416,1.819,1.819,0,0,1,1.459.568A2.349,2.349,0,0,1,71.17,19.2Z" fill="#1bcbad"/>
        <path id="Path_6" data-name="Path 6" d="M74.1,23.664a1.262,1.262,0,0,1-.688-1.152q0-.8,1.056-1.312a2.02,2.02,0,0,1-.712-.728,2.22,2.22,0,0,1-.264-1.128,1.85,1.85,0,0,1,.216-.864,2.493,2.493,0,0,1,.584-.736,2.847,2.847,0,0,1,.84-.5,2.74,2.74,0,0,1,1-.184,3.517,3.517,0,0,1,1.28.192,3.156,3.156,0,0,1,.832.48l1.584-.688a.661.661,0,0,1,.256.3.876.876,0,0,1,.08.344c0,.235-.08.352-.24.352l-.576-.016a3.479,3.479,0,0,0-.736.1,1.927,1.927,0,0,1,.384,1.216,1.9,1.9,0,0,1-.224.912,2.218,2.218,0,0,1-.608.712,2.945,2.945,0,0,1-.912.464,3.675,3.675,0,0,1-1.12.168,4.843,4.843,0,0,1-.64-.04,2.785,2.785,0,0,1-.576-.136,1.653,1.653,0,0,0-.576.384.585.585,0,0,0-.16.368.435.435,0,0,0,.08.248.624.624,0,0,0,.3.208,2.64,2.64,0,0,0,.608.144,7.346,7.346,0,0,0,1,.056,7.957,7.957,0,0,1,1.36.112,3.854,3.854,0,0,1,1.128.368,2.065,2.065,0,0,1,.768.672,1.767,1.767,0,0,1,.28,1.008,2.612,2.612,0,0,1-.264,1.184,2.684,2.684,0,0,1-.736.9,3.387,3.387,0,0,1-1.136.576,5.018,5.018,0,0,1-1.448.2,4.332,4.332,0,0,1-2.352-.544,1.917,1.917,0,0,1-.848-1.744,1.807,1.807,0,0,1,.112-.648,2.408,2.408,0,0,1,.28-.536,2.037,2.037,0,0,1,.384-.416A3.308,3.308,0,0,1,74.1,23.664Zm.384.192a1.406,1.406,0,0,0-.432.928,2,2,0,0,0-.016.256v.272a1.731,1.731,0,0,0,.176.672,1.749,1.749,0,0,0,.464.592,2.4,2.4,0,0,0,.752.416,3.076,3.076,0,0,0,1.04.16,2.25,2.25,0,0,0,1.608-.488,1.615,1.615,0,0,0,.5-1.208,1.236,1.236,0,0,0-.128-.56,1.107,1.107,0,0,0-.432-.44,2.566,2.566,0,0,0-.8-.288,6.167,6.167,0,0,0-1.232-.1,6.633,6.633,0,0,1-.808-.048A3.074,3.074,0,0,1,74.482,23.856Zm1.808-2.832a1.22,1.22,0,0,0,.944-.384,1.507,1.507,0,0,0,.352-1.056,3.4,3.4,0,0,0-.072-.7,1.9,1.9,0,0,0-.248-.624,1.393,1.393,0,0,0-.472-.456,1.443,1.443,0,0,0-.744-.176,1.129,1.129,0,0,0-.888.368,1.461,1.461,0,0,0-.328,1.008,3.706,3.706,0,0,0,.072.728,2.089,2.089,0,0,0,.24.648,1.327,1.327,0,0,0,.448.464A1.284,1.284,0,0,0,76.29,21.024Z" fill="#1bcbad"/>
      </g>
      <g id="Group_3" data-name="Group 3" transform="translate(-6 1)">
        <path id="Path_7" data-name="Path 7" d="M35.08,43.152a6.14,6.14,0,0,1-2.352-.416,4.6,4.6,0,0,1-1.672-1.144,4.72,4.72,0,0,1-.992-1.712,6.651,6.651,0,0,1-.328-2.12,5.854,5.854,0,0,1,.328-1.9,5.273,5.273,0,0,1,.992-1.736,5.093,5.093,0,0,1,1.672-1.264,5.344,5.344,0,0,1,2.352-.488c.352,0,.674.008.968.024s.574.043.84.08.528.086.784.144.523.126.8.2a9.276,9.276,0,0,0,.112,1.056q.1.624.256,1.264a.567.567,0,0,1-.256.064.8.8,0,0,1-.232-.032.212.212,0,0,1-.136-.176,2.62,2.62,0,0,0-.912-1.5A3.076,3.076,0,0,0,35.5,33.04a4.467,4.467,0,0,0-1.752.32,3.553,3.553,0,0,0-1.28.9,3.794,3.794,0,0,0-.784,1.384,5.778,5.778,0,0,0-.264,1.8,5.926,5.926,0,0,0,.336,2.032,5.175,5.175,0,0,0,.9,1.6,4.027,4.027,0,0,0,1.328,1.04,3.684,3.684,0,0,0,1.624.368,4.238,4.238,0,0,0,1.16-.136,2.162,2.162,0,0,0,.784-.392,2.27,2.27,0,0,0,.528-.632,6.787,6.787,0,0,0,.408-.856.391.391,0,0,1,.384-.24.642.642,0,0,1,.168.024.48.48,0,0,1,.136.056q-.192.559-.384,1.232t-.32,1.344q-.784.127-1.6.2T35.08,43.152Z" fill="#1bcbad"/>
        <path id="Path_8" data-name="Path 8" d="M42.76,37.6a2.65,2.65,0,0,0,.272-.288,4.746,4.746,0,0,1,1.408-1.064,2.25,2.25,0,0,1,1.024-.232,2.4,2.4,0,0,1,.736.112,1.556,1.556,0,0,1,.616.368,1.865,1.865,0,0,1,.424.656,2.681,2.681,0,0,1,.16.992v3.9a.389.389,0,0,0,.288.36,3.1,3.1,0,0,0,.656.184.171.171,0,0,1,.128.192,1.4,1.4,0,0,1-.032.256q-.416-.031-.809-.056t-.879-.024c-.28,0-.563.008-.847.024s-.564.035-.841.056a1.316,1.316,0,0,1-.032-.256.173.173,0,0,1,.144-.192,1.5,1.5,0,0,0,.3-.064,1.992,1.992,0,0,0,.28-.112.81.81,0,0,0,.216-.152.3.3,0,0,0,.088-.216V38.912a5.229,5.229,0,0,0-.048-.736,1.72,1.72,0,0,0-.183-.584.977.977,0,0,0-.367-.384,1.168,1.168,0,0,0-.6-.136,2.32,2.32,0,0,0-.78.136,2.017,2.017,0,0,0-.677.4,1.932,1.932,0,0,0-.47.648,2.1,2.1,0,0,0-.175.88v2.912a.387.387,0,0,0,.272.36,2.815,2.815,0,0,0,.608.184.173.173,0,0,1,.144.192,1.4,1.4,0,0,1-.032.256c-.277-.021-.55-.04-.817-.056s-.553-.024-.855-.024-.609.008-.887.024-.55.035-.817.056a1.316,1.316,0,0,1-.032-.256c0-.107.042-.171.128-.192a3.1,3.1,0,0,0,.656-.184.4.4,0,0,0,.288-.376V33.424a.932.932,0,0,0-.192-.688,1.435,1.435,0,0,0-.768-.24.211.211,0,0,1-.208-.224.905.905,0,0,1,.032-.224q.207,0,.576-.024t.672-.056a4.782,4.782,0,0,0,.664-.128,1.837,1.837,0,0,1,.421-.08.232.232,0,0,1,.194.064.281.281,0,0,1,.049.176,4.847,4.847,0,0,1-.048.632,6.439,6.439,0,0,0-.048.84Z" fill="#1bcbad"/>
        <path id="Path_9" data-name="Path 9" d="M56.12,42.528q.176,0,.192.336a1.812,1.812,0,0,1-1.056.288,1.649,1.649,0,0,1-.613-.1,1.308,1.308,0,0,1-.438-.28,1.255,1.255,0,0,1-.275-.4,1.753,1.753,0,0,1-.13-.464,2.24,2.24,0,0,1-.952.984,2.915,2.915,0,0,1-1.272.264,4.479,4.479,0,0,1-.68-.056,2.054,2.054,0,0,1-.68-.232,1.456,1.456,0,0,1-.528-.5,1.532,1.532,0,0,1-.208-.848,1.722,1.722,0,0,1,.28-1,2.3,2.3,0,0,1,.72-.672,4.337,4.337,0,0,1,.96-.424q.521-.16,1-.272c.181-.032.35-.067.5-.1a3.712,3.712,0,0,0,.408-.12.425.425,0,0,0,.28-.176,1.11,1.11,0,0,0,.056-.432,2.411,2.411,0,0,0-.288-1.24,1.089,1.089,0,0,0-1.024-.488,1.464,1.464,0,0,0-.464.064.769.769,0,0,0-.32.2,1.219,1.219,0,0,0-.224.36c-.064.149-.128.326-.192.528A.384.384,0,0,1,50.96,38a3.886,3.886,0,0,1-.568.192,2.474,2.474,0,0,1-.24.064,1.168,1.168,0,0,1-.24.032c-.107,0-.16-.112-.16-.336a1.152,1.152,0,0,1,.272-.7,2.761,2.761,0,0,1,.7-.624,4.172,4.172,0,0,1,.92-.44,2.943,2.943,0,0,1,.944-.168,4.853,4.853,0,0,1,1.01.1,1.847,1.847,0,0,1,.774.352,1.6,1.6,0,0,1,.494.688,3.108,3.108,0,0,1,.17,1.12v2.752a5.649,5.649,0,0,0,.04.808,1.229,1.229,0,0,0,.12.392.643.643,0,0,0,.248.3.592.592,0,0,0,.28.072.66.66,0,0,0,.248-.032A.373.373,0,0,1,56.12,42.528Zm-2.432-3.12-.515.08c-.279.054-.55.117-.813.192a2.555,2.555,0,0,0-.7.312,1.564,1.564,0,0,0-.491.5,1.416,1.416,0,0,0-.185.752,1.268,1.268,0,0,0,.314.928,1.046,1.046,0,0,0,.781.32,1.437,1.437,0,0,0,.6-.136,1.5,1.5,0,0,0,.515-.384,2.038,2.038,0,0,0,.354-.584,1.936,1.936,0,0,0,.137-.736Z" fill="#1bcbad"/>
        <path id="Path_10" data-name="Path 10" d="M64.072,42.048a.389.389,0,0,0,.288.36,3.121,3.121,0,0,0,.64.184.173.173,0,0,1,.144.192,1.4,1.4,0,0,1-.032.256c-.278-.021-.549-.04-.816-.056s-.555-.024-.864-.024c-.288,0-.574.008-.856.024s-.563.035-.84.056a1.316,1.316,0,0,1-.032-.256.173.173,0,0,1,.144-.192,2.833,2.833,0,0,0,.608-.184.387.387,0,0,0,.272-.36V38.912a5.229,5.229,0,0,0-.048-.736,1.72,1.72,0,0,0-.183-.584.977.977,0,0,0-.367-.384,1.168,1.168,0,0,0-.6-.136,2.33,2.33,0,0,0-.781.136,2.022,2.022,0,0,0-.676.4,1.932,1.932,0,0,0-.47.648,2.1,2.1,0,0,0-.175.88v2.912a.387.387,0,0,0,.28.36,3.019,3.019,0,0,0,.6.184.173.173,0,0,1,.144.192,1.4,1.4,0,0,1-.032.256c-.278-.021-.55-.04-.818-.056s-.552-.024-.854-.024-.609.008-.887.024-.551.035-.817.056a1.316,1.316,0,0,1-.032-.256.173.173,0,0,1,.144-.192,3.121,3.121,0,0,0,.64-.184.4.4,0,0,0,.288-.376V37.68a1.1,1.1,0,0,0-.168-.688,1.057,1.057,0,0,0-.728-.256.211.211,0,0,1-.208-.224.864.864,0,0,1,.032-.208q.207,0,.584-.024c.25-.016.456-.034.617-.056.248-.042.47-.088.663-.136a2.021,2.021,0,0,1,.421-.072c.151,0,.227.08.227.24a3.606,3.606,0,0,1-.048.536,5.65,5.65,0,0,0-.048.824,6.949,6.949,0,0,1,1.315-1.184,2.455,2.455,0,0,1,1.379-.416,1.816,1.816,0,0,1,1.459.568,2.344,2.344,0,0,1,.487,1.576Z" fill="#1bcbad"/>
        <path id="Path_11" data-name="Path 11" d="M67,42.624a1.262,1.262,0,0,1-.688-1.152q0-.8,1.056-1.312a2.02,2.02,0,0,1-.712-.728,2.21,2.21,0,0,1-.264-1.128,1.849,1.849,0,0,1,.215-.864,2.5,2.5,0,0,1,.584-.736,2.865,2.865,0,0,1,.841-.5,2.74,2.74,0,0,1,1-.184,3.517,3.517,0,0,1,1.28.192,3.156,3.156,0,0,1,.832.48L72.728,36a.652.652,0,0,1,.255.3.859.859,0,0,1,.08.344c0,.235-.08.352-.239.352l-.576-.016a3.479,3.479,0,0,0-.736.1,1.927,1.927,0,0,1,.384,1.216,1.884,1.884,0,0,1-.225.912,2.194,2.194,0,0,1-.608.712,2.934,2.934,0,0,1-.912.464,3.664,3.664,0,0,1-1.119.168,4.843,4.843,0,0,1-.64-.04,2.81,2.81,0,0,1-.577-.136,1.657,1.657,0,0,0-.575.384.585.585,0,0,0-.16.368.435.435,0,0,0,.08.248.624.624,0,0,0,.3.208,2.643,2.643,0,0,0,.607.144,7.367,7.367,0,0,0,1,.056,7.869,7.869,0,0,1,1.361.112,3.854,3.854,0,0,1,1.128.368,2.065,2.065,0,0,1,.768.672,1.767,1.767,0,0,1,.28,1.008,2.6,2.6,0,0,1-.265,1.184,2.669,2.669,0,0,1-.735.9,3.383,3.383,0,0,1-1.137.576,5.006,5.006,0,0,1-1.447.2,4.332,4.332,0,0,1-2.352-.544,1.918,1.918,0,0,1-.849-1.744,1.807,1.807,0,0,1,.113-.648,2.408,2.408,0,0,1,.28-.536,2.037,2.037,0,0,1,.384-.416A3.308,3.308,0,0,1,67,42.624Zm.384.192a1.4,1.4,0,0,0-.432.928,2,2,0,0,0-.016.256v.272a1.731,1.731,0,0,0,.176.672,1.749,1.749,0,0,0,.464.592,2.4,2.4,0,0,0,.752.416,3.076,3.076,0,0,0,1.04.16,2.25,2.25,0,0,0,1.608-.488,1.614,1.614,0,0,0,.5-1.208,1.235,1.235,0,0,0-.127-.56,1.1,1.1,0,0,0-.433-.44,2.55,2.55,0,0,0-.8-.288,6.167,6.167,0,0,0-1.232-.1,6.633,6.633,0,0,1-.808-.048A3.074,3.074,0,0,1,67.384,42.816Zm1.807-2.832a1.22,1.22,0,0,0,.945-.384,1.507,1.507,0,0,0,.352-1.056,3.469,3.469,0,0,0-.072-.7,1.882,1.882,0,0,0-.249-.624,1.381,1.381,0,0,0-.471-.456,1.443,1.443,0,0,0-.744-.176,1.132,1.132,0,0,0-.889.368,1.466,1.466,0,0,0-.327,1.008,3.706,3.706,0,0,0,.072.728,2.088,2.088,0,0,0,.239.648,1.339,1.339,0,0,0,.449.464A1.283,1.283,0,0,0,69.191,39.984Z" fill="#1bcbad"/>
        <path id="Path_12" data-name="Path 12" d="M79.273,41.472a.334.334,0,0,1,.239-.112c.107,0,.208.091.3.272a4.476,4.476,0,0,1-.48.56,3.056,3.056,0,0,1-.647.488,3.594,3.594,0,0,1-.856.344,4.321,4.321,0,0,1-1.1.128,3.553,3.553,0,0,1-1.217-.208A2.769,2.769,0,0,1,74.5,42.3a3.15,3.15,0,0,1-.7-1.072,3.905,3.905,0,0,1-.265-1.5,3.6,3.6,0,0,1,.312-1.5,3.9,3.9,0,0,1,.808-1.176,3.781,3.781,0,0,1,1.1-.76,2.805,2.805,0,0,1,1.159-.272,2.589,2.589,0,0,1,2.168.864,3.538,3.538,0,0,1,.68,2.256.085.085,0,0,1-.1.1l-4.624.208a3.632,3.632,0,0,0,.176,1.152,2.778,2.778,0,0,0,.494.912,2.252,2.252,0,0,0,.774.6,2.367,2.367,0,0,0,1.028.216,2.134,2.134,0,0,0,.981-.24A2.587,2.587,0,0,0,79.273,41.472Zm-2.586-4.88a1.44,1.44,0,0,0-1.242.624A2.747,2.747,0,0,0,75,38.848l3.009-.144c.158,0,.239-.069.239-.208a2.367,2.367,0,0,0-.1-.64,2.1,2.1,0,0,0-.287-.616,1.616,1.616,0,0,0-.485-.464A1.279,1.279,0,0,0,76.687,36.592Z" fill="#1bcbad"/>
      </g>
      <g id="Group_4" data-name="Group 4" transform="translate(-6 1)">
        <path id="Path_13" data-name="Path 13" d="M36.15,60.8a.466.466,0,0,0,.208.44,3.216,3.216,0,0,0,.832.248.2.2,0,0,1,.161.224,1.437,1.437,0,0,1-.033.288c-.266-.021-.581-.04-.942-.056s-.685-.024-.969-.024-.611.008-.946.024-.663.035-.982.056a1.437,1.437,0,0,1-.033-.288.2.2,0,0,1,.16-.224,2.9,2.9,0,0,0,.816-.24.471.471,0,0,0,.224-.448V56.928H29.623V60.8a.464.464,0,0,0,.208.44,3.2,3.2,0,0,0,.832.248.2.2,0,0,1,.175.224,1.5,1.5,0,0,1-.031.288q-.417-.031-.96-.056t-.976-.024q-.448,0-.945.024c-.33.016-.661.035-.991.056a1.437,1.437,0,0,1-.033-.288.2.2,0,0,1,.161-.224,2.958,2.958,0,0,0,.832-.24.473.473,0,0,0,.224-.448V52.672a.76.76,0,0,0-.04-.264.413.413,0,0,0-.153-.184,1,1,0,0,0-.311-.136q-.2-.056-.52-.12c-.107-.01-.16-.1-.16-.256a1.44,1.44,0,0,1,.031-.272c.267.021.576.04.929.056s.671.024.959.024.614-.008.944-.024.657-.035.976-.056a1.383,1.383,0,0,1,.033.272c0,.149-.054.235-.161.256a2.146,2.146,0,0,0-.824.24.532.532,0,0,0-.2.464v3.584h5.023V52.672a.556.556,0,0,0-.191-.44,1.759,1.759,0,0,0-.816-.264c-.118-.01-.177-.1-.177-.256a1.382,1.382,0,0,1,.033-.272q.4.031.934.056c.356.016.676.024.962.024s.6-.008.929-.024.652-.035.983-.056a1.44,1.44,0,0,1,.031.272c0,.149-.053.235-.16.256a2.133,2.133,0,0,0-.823.24.531.531,0,0,0-.2.464Z" fill="#1bcbad"/>
        <path id="Path_14" data-name="Path 14" d="M45.415,61.488c.117,0,.181.112.191.336a1.812,1.812,0,0,1-1.056.288,1.649,1.649,0,0,1-.613-.1,1.319,1.319,0,0,1-.437-.28,1.258,1.258,0,0,1-.276-.4,1.714,1.714,0,0,1-.129-.464,2.24,2.24,0,0,1-.952.984,2.918,2.918,0,0,1-1.272.264,4.492,4.492,0,0,1-.681-.056,2.056,2.056,0,0,1-.679-.232,1.459,1.459,0,0,1-.529-.5,1.541,1.541,0,0,1-.208-.848,1.722,1.722,0,0,1,.281-1,2.281,2.281,0,0,1,.719-.672,4.379,4.379,0,0,1,.96-.424q.521-.16,1-.272.273-.048.5-.1a3.648,3.648,0,0,0,.408-.12.422.422,0,0,0,.28-.176,1.09,1.09,0,0,0,.056-.432,2.4,2.4,0,0,0-.288-1.24,1.089,1.089,0,0,0-1.024-.488,1.458,1.458,0,0,0-.463.064.769.769,0,0,0-.32.2,1.219,1.219,0,0,0-.224.36q-.1.224-.192.528a.386.386,0,0,1-.217.256,3.863,3.863,0,0,1-.567.192c-.064.021-.145.043-.241.064a1.151,1.151,0,0,1-.239.032c-.107,0-.161-.112-.161-.336a1.152,1.152,0,0,1,.272-.7,2.766,2.766,0,0,1,.7-.624,4.172,4.172,0,0,1,.92-.44,2.937,2.937,0,0,1,.943-.168,4.87,4.87,0,0,1,1.011.1,1.858,1.858,0,0,1,.774.352,1.618,1.618,0,0,1,.494.688,3.108,3.108,0,0,1,.17,1.12v2.752a5.659,5.659,0,0,0,.04.808,1.206,1.206,0,0,0,.119.392.654.654,0,0,0,.248.3.593.593,0,0,0,.281.072.663.663,0,0,0,.248-.032A.373.373,0,0,1,45.415,61.488Zm-2.433-3.12-.515.08q-.418.079-.813.192a2.548,2.548,0,0,0-.7.312,1.567,1.567,0,0,0-.492.5,1.426,1.426,0,0,0-.185.752,1.273,1.273,0,0,0,.314.928,1.047,1.047,0,0,0,.781.32,1.438,1.438,0,0,0,.6-.136,1.516,1.516,0,0,0,.515-.384,2.061,2.061,0,0,0,.354-.584,1.936,1.936,0,0,0,.136-.736Z" fill="#1bcbad"/>
        <path id="Path_15" data-name="Path 15" d="M47.3,56.576a1.046,1.046,0,0,0-.152-.64,1.012,1.012,0,0,0-.7-.24c-.139-.021-.207-.091-.207-.208a.955.955,0,0,1,.031-.224c.139,0,.328-.008.568-.024a4.75,4.75,0,0,0,.6-.072,5.538,5.538,0,0,0,.632-.12,1.868,1.868,0,0,1,.408-.072c.139,0,.208.08.208.24,0,.128-.007.28-.024.456s-.024.434-.024.776A5,5,0,0,1,49.727,55.4a2.5,2.5,0,0,1,1.48-.424,2.551,2.551,0,0,1,1.936.888,3.376,3.376,0,0,1,.615,1.08A4.249,4.249,0,0,1,53.99,58.4a3.565,3.565,0,0,1-.336,1.584,3.991,3.991,0,0,1-.832,1.16,3.612,3.612,0,0,1-1.08.72,2.786,2.786,0,0,1-1.08.248,5.176,5.176,0,0,1-1-.1,4.643,4.643,0,0,1-1.016-.336v2.9a.564.564,0,0,0,.368.568,4.626,4.626,0,0,0,1.2.232.191.191,0,0,1,.176.208,1.409,1.409,0,0,1-.032.256c-.245-.022-.581-.04-1.008-.056s-.827-.024-1.2-.024q-.416,0-.879.024c-.31.016-.6.034-.881.056a1.409,1.409,0,0,1-.032-.256.173.173,0,0,1,.144-.192,2.647,2.647,0,0,0,.576-.192.382.382,0,0,0,.224-.368Zm1.344,4.048a3.377,3.377,0,0,0,.88.664,2.328,2.328,0,0,0,1.088.248,1.567,1.567,0,0,0,.816-.208,1.75,1.75,0,0,0,.584-.568,2.759,2.759,0,0,0,.352-.864,4.725,4.725,0,0,0,.12-1.1,4.818,4.818,0,0,0-.136-1.16,3.218,3.218,0,0,0-.4-.968,2.1,2.1,0,0,0-.639-.656,1.531,1.531,0,0,0-.841-.24,1.265,1.265,0,0,0-.639.184,2.418,2.418,0,0,0-.584.472,2.524,2.524,0,0,0-.433.648,1.708,1.708,0,0,0-.168.728Z" fill="#1bcbad"/>
        <path id="Path_16" data-name="Path 16" d="M56.054,56.576a1.046,1.046,0,0,0-.152-.64,1.012,1.012,0,0,0-.7-.24c-.139-.021-.207-.091-.207-.208a.955.955,0,0,1,.031-.224c.139,0,.328-.008.568-.024a4.75,4.75,0,0,0,.6-.072,5.538,5.538,0,0,0,.632-.12,1.867,1.867,0,0,1,.408-.072c.139,0,.208.08.208.24q0,.192-.024.456c-.016.176-.024.434-.024.776A5,5,0,0,1,58.479,55.4a2.494,2.494,0,0,1,1.479-.424,2.551,2.551,0,0,1,1.937.888,3.4,3.4,0,0,1,.615,1.08,4.249,4.249,0,0,1,.232,1.456,3.565,3.565,0,0,1-.336,1.584,3.991,3.991,0,0,1-.832,1.16,3.612,3.612,0,0,1-1.08.72,2.786,2.786,0,0,1-1.08.248,5.176,5.176,0,0,1-1-.1A4.626,4.626,0,0,1,57.4,61.68v2.9a.564.564,0,0,0,.368.568,4.626,4.626,0,0,0,1.2.232.191.191,0,0,1,.176.208,1.409,1.409,0,0,1-.032.256c-.245-.022-.581-.04-1.008-.056s-.827-.024-1.2-.024q-.416,0-.88.024c-.309.016-.6.034-.88.056a1.409,1.409,0,0,1-.032-.256.173.173,0,0,1,.144-.192,2.647,2.647,0,0,0,.576-.192.383.383,0,0,0,.224-.368ZM57.4,60.624a3.361,3.361,0,0,0,.88.664,2.328,2.328,0,0,0,1.088.248,1.567,1.567,0,0,0,.816-.208,1.75,1.75,0,0,0,.584-.568,2.759,2.759,0,0,0,.352-.864,4.725,4.725,0,0,0,.12-1.1,4.818,4.818,0,0,0-.136-1.16,3.218,3.218,0,0,0-.4-.968,2.1,2.1,0,0,0-.639-.656,1.531,1.531,0,0,0-.841-.24,1.265,1.265,0,0,0-.639.184,2.418,2.418,0,0,0-.584.472,2.523,2.523,0,0,0-.433.648,1.708,1.708,0,0,0-.168.728Z" fill="#1bcbad"/>
        <path id="Path_17" data-name="Path 17" d="M69.656,60.432a.332.332,0,0,1,.239-.112c.106,0,.208.091.3.272a4.561,4.561,0,0,1-.48.56,3.071,3.071,0,0,1-.648.488,3.577,3.577,0,0,1-.856.344,4.315,4.315,0,0,1-1.1.128,3.571,3.571,0,0,1-1.216-.208,2.773,2.773,0,0,1-1.016-.64,3.179,3.179,0,0,1-.7-1.072,3.925,3.925,0,0,1-.264-1.5,3.6,3.6,0,0,1,.312-1.5,3.89,3.89,0,0,1,.808-1.176,3.79,3.79,0,0,1,1.1-.76,2.81,2.81,0,0,1,1.16-.272,2.59,2.59,0,0,1,2.168.864,3.538,3.538,0,0,1,.68,2.256.085.085,0,0,1-.1.1l-4.624.208a3.661,3.661,0,0,0,.175,1.152,2.8,2.8,0,0,0,.5.912,2.249,2.249,0,0,0,.773.6,2.372,2.372,0,0,0,1.029.216,2.134,2.134,0,0,0,.981-.24A2.6,2.6,0,0,0,69.656,60.432Zm-2.586-4.88a1.44,1.44,0,0,0-1.242.624,2.747,2.747,0,0,0-.446,1.632l3.01-.144c.158,0,.238-.069.238-.208a2.364,2.364,0,0,0-.095-.64,2.13,2.13,0,0,0-.287-.616,1.616,1.616,0,0,0-.485-.464A1.281,1.281,0,0,0,67.07,55.552Z" fill="#1bcbad"/>
        <path id="Path_18" data-name="Path 18" d="M78.39,61.008a.389.389,0,0,0,.288.36,3.121,3.121,0,0,0,.64.184.173.173,0,0,1,.144.192A1.4,1.4,0,0,1,79.43,62q-.416-.031-.816-.056c-.267-.016-.554-.024-.864-.024q-.432,0-.856.024c-.283.016-.562.035-.84.056a1.4,1.4,0,0,1-.032-.256.173.173,0,0,1,.144-.192,2.815,2.815,0,0,0,.608-.184.385.385,0,0,0,.272-.36V57.872A5.381,5.381,0,0,0,77,57.136a1.743,1.743,0,0,0-.184-.584.981.981,0,0,0-.366-.384,1.172,1.172,0,0,0-.6-.136,2.32,2.32,0,0,0-.78.136,2.017,2.017,0,0,0-.677.4,1.932,1.932,0,0,0-.47.648,2.113,2.113,0,0,0-.175.88v2.912a.387.387,0,0,0,.28.36,3.061,3.061,0,0,0,.6.184.173.173,0,0,1,.144.192,1.4,1.4,0,0,1-.032.256c-.277-.021-.55-.04-.817-.056s-.553-.024-.855-.024-.609.008-.887.024-.55.035-.817.056a1.4,1.4,0,0,1-.032-.256.173.173,0,0,1,.144-.192,3.121,3.121,0,0,0,.64-.184.4.4,0,0,0,.288-.376V56.64a1.1,1.1,0,0,0-.168-.688,1.052,1.052,0,0,0-.728-.256.212.212,0,0,1-.208-.224.918.918,0,0,1,.032-.208c.139,0,.333-.008.584-.024s.457-.034.618-.056c.248-.042.469-.088.663-.136a2,2,0,0,1,.421-.072c.151,0,.226.08.226.24a3.605,3.605,0,0,1-.048.536,5.65,5.65,0,0,0-.048.824,6.98,6.98,0,0,1,1.315-1.184,2.456,2.456,0,0,1,1.38-.416,1.818,1.818,0,0,1,1.459.568,2.349,2.349,0,0,1,.486,1.576Z" fill="#1bcbad"/>
        <path id="Path_19" data-name="Path 19" d="M80.518,61.072a1.025,1.025,0,0,1,.3-.728.981.981,0,0,1,.744-.312.922.922,0,0,1,.7.312,1.1,1.1,0,0,1,0,1.488.946.946,0,0,1-.7.3,1.009,1.009,0,0,1-.744-.3A1.03,1.03,0,0,1,80.518,61.072Z" fill="#1bcbad"/>
      </g>
      <g id="Group_5" data-name="Group 5" transform="translate(68 -84.567)">
        <ellipse id="Ellipse_1" data-name="Ellipse 1" cx="33.876" cy="35.354" rx="33.876" ry="35.354" transform="translate(19.049 89.739)" fill="#1bcbad"/>
      </g>
      <g id="Group_8" data-name="Group 8" transform="translate(65 -85)">
        <path id="Path_20" data-name="Path 20" d="M46.111,120.82a.583.583,0,0,1,.26-.28,2.291,2.291,0,0,1,.879-.1c.107,0,.264,0,.471-.01l.67-.02c.24-.007.48-.016.72-.03s.446-.026.619-.04a.53.53,0,0,1,.041.2v.16c0,.214-.074.34-.22.38a6.324,6.324,0,0,0-.63.12,1.012,1.012,0,0,0-.35.15.431.431,0,0,0-.16.21.876.876,0,0,0-.04.28q0,.041.03.76t.09,1.78q.06,1.061.12,2.3t.119,2.35q.062,1.11.1,1.93t.06,1a.937.937,0,0,0,.049.33.532.532,0,0,0,.181.23,1.1,1.1,0,0,0,.37.17,5.065,5.065,0,0,0,.62.13c.146.027.22.153.22.38a1.835,1.835,0,0,1-.04.34q-.7-.04-1.27-.07t-1.291-.03q-.658,0-1.409.03t-1.25.07a1.753,1.753,0,0,1-.04-.34.468.468,0,0,1,.07-.3.187.187,0,0,1,.129-.08,2.659,2.659,0,0,0,1.061-.33.707.707,0,0,0,.24-.59q0-.06-.031-.64t-.06-1.44q-.028-.86-.079-1.86t-.1-1.88q-.051-.881-.08-1.52c-.02-.427-.037-.686-.05-.78l-4.1,9.54a2.341,2.341,0,0,1-.17.27.23.23,0,0,1-.19.09h-.12a.28.28,0,0,1-.12-.02l-4.64-11.12c-.014.173-.03.523-.05,1.05s-.047,1.13-.08,1.81-.067,1.4-.1,2.15-.064,1.45-.09,2.09-.05,1.177-.07,1.61-.03.67-.03.71a1.047,1.047,0,0,0,.04.31.475.475,0,0,0,.16.23.99.99,0,0,0,.36.17q.24.07.66.15c.146.027.22.153.22.38,0,.04,0,.09-.01.15s-.017.123-.03.19c-.36-.027-.694-.05-1-.07s-.614-.03-.92-.03c-.267,0-.6.01-1,.03s-.76.043-1.08.07a.394.394,0,0,1-.041-.18v-.16a.47.47,0,0,1,.061-.29.27.27,0,0,1,.16-.09,2.95,2.95,0,0,0,.9-.32.7.7,0,0,0,.32-.54c0-.106.013-.43.039-.97s.061-1.18.1-1.92.08-1.527.12-2.36.076-1.606.11-2.32.06-1.31.08-1.79.03-.733.03-.76a.551.551,0,0,0-.22-.49,2.781,2.781,0,0,0-.96-.27c-.147-.013-.221-.14-.221-.38v-.16a.53.53,0,0,1,.041-.2q.26.021.72.04c.306.014.62.023.94.03l.9.02q.42.01.6.01a4.022,4.022,0,0,1,.56.03,1.97,1.97,0,0,1,.32.07.3.3,0,0,1,.169.12c.034.053.064.107.091.16l3.72,8.98Z" fill="#2e4159"/>
        <path id="Path_21" data-name="Path 21" d="M58.39,133.68a7.68,7.68,0,0,1-2.94-.52,5.652,5.652,0,0,1-2.08-1.43,5.978,5.978,0,0,1-1.23-2.14,8.337,8.337,0,0,1-.41-2.65,7.481,7.481,0,0,1,.4-2.38,6.211,6.211,0,0,1,1.26-2.17,6.473,6.473,0,0,1,2.2-1.58,7.67,7.67,0,0,1,3.2-.61,12.343,12.343,0,0,1,1.91.14,18.657,18.657,0,0,1,1.93.42q.041.54.16,1.38a13.167,13.167,0,0,0,.34,1.64l-.26.05a1.429,1.429,0,0,1-.24.03.657.657,0,0,1-.27-.05.289.289,0,0,1-.15-.21,5.251,5.251,0,0,0-.5-1.11,2.409,2.409,0,0,0-.67-.72,2.611,2.611,0,0,0-.91-.39,5.475,5.475,0,0,0-1.22-.12,4.643,4.643,0,0,0-1.91.37,3.709,3.709,0,0,0-1.39,1.06,4.773,4.773,0,0,0-.85,1.66,7.656,7.656,0,0,0-.29,2.19,8.085,8.085,0,0,0,.35,2.42,6.433,6.433,0,0,0,.96,1.94,4.474,4.474,0,0,0,1.45,1.28,3.726,3.726,0,0,0,1.82.46,5.446,5.446,0,0,0,1.37-.15,2.646,2.646,0,0,0,1.68-1.25,6.767,6.767,0,0,0,.53-1.12.412.412,0,0,1,.19-.23.56.56,0,0,1,.27-.07,1.315,1.315,0,0,1,.25.03,1.521,1.521,0,0,1,.25.07c-.08.227-.163.483-.25.77s-.176.58-.27.88-.176.6-.25.9-.136.59-.19.87a19.68,19.68,0,0,1-2,.26Q59.61,133.679,58.39,133.68Z" fill="#2e4159"/>
        <path id="Path_22" data-name="Path 22" d="M76.91,131.96a1.5,1.5,0,0,0,.03.33.4.4,0,0,0,.16.23,1.109,1.109,0,0,0,.38.17,5.359,5.359,0,0,0,.67.13c.133.027.2.14.2.34,0,.04,0,.1-.01.18a1.382,1.382,0,0,1-.03.2q-.64-.04-1.36-.07t-1.28-.03q-.581,0-1.31.03t-1.37.07a.443.443,0,0,1-.04-.2v-.18c0-.213.067-.327.2-.34a5.4,5.4,0,0,0,.67-.13,1,1,0,0,0,.37-.17.481.481,0,0,0,.16-.23,1.165,1.165,0,0,0,.04-.33v-4.7h-5.4v4.7a1.5,1.5,0,0,0,.03.33.4.4,0,0,0,.16.23,1.109,1.109,0,0,0,.38.17,5.4,5.4,0,0,0,.67.13c.133.027.2.14.2.34,0,.04,0,.1-.01.18a1.382,1.382,0,0,1-.03.2q-.641-.04-1.38-.07t-1.3-.03q-.561,0-1.28.03t-1.36.07a.443.443,0,0,1-.04-.2v-.18c0-.213.067-.327.2-.34a5.4,5.4,0,0,0,.67-.13,1,1,0,0,0,.37-.17.481.481,0,0,0,.16-.23,1.13,1.13,0,0,0,.04-.33V121.94a1.135,1.135,0,0,0-.04-.33.486.486,0,0,0-.16-.23,1.016,1.016,0,0,0-.37-.17,5.587,5.587,0,0,0-.67-.13c-.133-.04-.2-.153-.2-.34v-.18a.582.582,0,0,1,.04-.22q.641.041,1.36.07t1.28.03q.56,0,1.3-.03t1.38-.07a2.131,2.131,0,0,1,.03.22c.007.08.01.14.01.18,0,.187-.067.3-.2.34a5.587,5.587,0,0,0-.67.13,1.129,1.129,0,0,0-.38.17.405.405,0,0,0-.16.23,1.51,1.51,0,0,0-.03.33v4.26h5.4v-4.26a1.17,1.17,0,0,0-.04-.33.486.486,0,0,0-.16-.23,1.016,1.016,0,0,0-.37-.17,5.587,5.587,0,0,0-.67-.13c-.133-.04-.2-.153-.2-.34v-.18a.582.582,0,0,1,.04-.22q.641.041,1.37.07t1.31.03q.56,0,1.28-.03t1.36-.07a2.131,2.131,0,0,1,.03.22c.007.08.01.14.01.18,0,.187-.067.3-.2.34a5.547,5.547,0,0,0-.67.13,1.129,1.129,0,0,0-.38.17.405.405,0,0,0-.16.23,1.509,1.509,0,0,0-.03.33Z" fill="#2e4159"/>
      </g>
    </g>
  </g>
</svg>
